<svg width="744" height="558" viewBox="0 0 744 558" fill="none" xmlns="http://www.w3.org/2000/svg">
<path d="M698.75 293.737C707.71 292.057 715.91 284.187 718.12 275.617C718.59 273.787 718.83 268.627 718.82 260.117C718.79 195.167 718.77 155.527 718.77 141.217C718.77 133.347 711.62 126.167 704.98 123.307C703.51 122.677 698.12 121.677 688.83 120.307C547.95 99.6675 411.03 79.3675 278.08 59.4075C243.08 54.1475 207.89 48.9375 172.5 43.7775C114.57 35.3275 79.3702 30.1575 66.9102 28.2775C60.0602 27.2475 55.1402 26.6375 52.1602 26.4675C41.8702 25.8875 32.2002 31.4075 28.2102 40.8675C27.3502 42.9075 26.9202 46.2575 26.9202 50.9075C26.9302 142.568 26.9302 214.837 26.9102 267.717C26.9102 270.987 27.0902 273.577 27.4602 275.477C29.0702 283.817 35.6602 290.418 43.3602 293.328C45.8302 294.258 49.2802 294.688 53.7002 294.638C81.2702 294.308 113.66 295.297 143.27 295.307C225.73 295.357 312.1 295.308 402.37 295.138C405.11 295.138 409.32 294.698 411.37 294.698C585.81 294.458 677.51 294.288 686.48 294.188C693.49 294.108 697.58 293.957 698.75 293.737Z" stroke="#808080" stroke-width="2"/>
<path d="M136.9 445.258C136.88 445.718 136.89 448.688 136.92 454.158C136.94 456.588 136.57 459.717 135.8 463.547C133.52 474.927 126.24 481.567 113.85 480.497C108.13 480.007 102.31 476.207 99.7001 470.557C98.1901 467.287 97.3601 464.878 97.1901 463.328C96.5501 457.608 95.8501 453.988 95.8501 449.028C95.8501 429.498 95.8501 411.227 95.8601 394.237C95.8601 390.227 96.6001 386.608 97.2601 381.968C98.3801 374.148 103.26 367.117 111.55 365.847C118.91 364.717 126.62 365.978 130.41 372.828C132.43 376.478 133.54 379.927 133.75 383.177C133.92 385.727 134.15 390.748 134.45 398.218C134.46 398.428 134.63 398.597 134.85 398.597H179.45C179.64 398.597 179.8 398.448 179.81 398.258C180.06 393.088 179.04 387.828 178.5 382.648C177.55 373.518 174.99 365.117 170.84 357.427C162.35 341.707 146.63 331.897 129.13 329.117C93.0901 323.397 57.4401 339.067 51.2401 378.187C50.3401 383.877 49.8901 387.687 49.8901 389.627C49.9001 432.427 49.9101 453.967 49.9201 454.237C49.9301 456.087 50.0501 457.597 50.2601 458.747C50.9601 462.607 51.0001 466.017 52.0301 469.977C58.2501 493.837 76.0701 508.977 99.8701 513.807C103.79 514.597 107.18 514.478 110.43 515.088C112.94 515.558 115.58 515.727 118.37 515.607C125.38 515.317 132.25 514.417 138.99 512.927C157.81 508.757 170.25 497.458 176.3 479.028C179.86 468.198 181.36 456.928 180.8 445.198C180.78 444.868 180.52 444.617 180.19 444.617H137.57C137.21 444.617 136.92 444.898 136.9 445.258Z" stroke="#808080" stroke-width="2"/>
<path d="M604.13 367.438C605.44 367.167 606.52 367.028 607.37 367.018C616.45 366.928 626.43 366.897 637.3 366.927C637.63 366.927 637.89 367.198 637.89 367.528V511.328C637.89 511.498 638.02 511.628 638.19 511.628H683.01C683.11 511.628 683.2 511.538 683.2 511.438V367.667C683.2 367.127 683.64 366.688 684.18 366.688H716.86C717.04 366.688 717.19 366.537 717.19 366.357V331.177C717.19 331.017 717.06 330.888 716.9 330.888H604.47C604.14 330.888 603.88 331.157 603.88 331.487V367.237C603.88 367.367 604 367.467 604.13 367.438Z" stroke="#808080" stroke-width="2"/>
<path d="M591.5 331.537C591.5 331.337 591.34 331.177 591.14 331.177H493.25C493.05 331.177 492.89 331.337 492.89 331.537V511.268C492.89 511.468 493.05 511.628 493.25 511.628H536.14C536.34 511.628 536.5 511.468 536.5 511.268V444.958C536.5 444.758 536.66 444.597 536.86 444.597H581.7C581.9 444.597 582.06 444.437 582.06 444.237V405.977C582.06 405.777 581.9 405.617 581.7 405.617H538.21C538.01 405.617 537.85 405.458 537.85 405.258V367.987C537.85 367.787 538.01 367.628 538.21 367.628H591.14C591.34 367.628 591.5 367.468 591.5 367.268V331.537Z" stroke="#808080" stroke-width="2"/>
<path d="M199.15 331.658V511.078C199.15 511.388 199.4 511.638 199.71 511.638H243.19C243.56 511.638 243.86 511.338 243.86 510.968V448.927C243.86 448.737 244.01 448.588 244.2 448.588H258.97C259.29 448.588 259.57 448.818 259.63 449.128L272.51 510.537C272.64 511.177 273.21 511.628 273.86 511.628H324.23C324.7 511.628 325.03 511.177 324.9 510.727L301.74 430.107C301.59 429.567 301.88 429.008 302.41 428.818C304.16 428.168 306.14 426.838 308.33 424.818C313.34 420.188 316.7 414.538 318.4 407.888C321.56 395.468 321.79 382.888 319.08 370.158C315.89 355.138 307.59 344.528 294.18 338.338C281.97 332.698 269.85 331.598 256.87 331.438C249.87 331.348 230.74 331.318 199.48 331.338C199.3 331.338 199.15 331.478 199.15 331.658Z" stroke="#808080" stroke-width="2"/>
<path d="M382.8 511.247C382.84 510.757 382.9 510.218 382.98 509.648C384.32 500.138 385.55 492.488 386.68 486.688C387.04 484.847 386.76 482.868 387.8 481.028C387.95 480.768 388.22 480.607 388.52 480.607H428.73C429.13 480.607 429.48 480.897 429.55 481.297L434.58 510.708C434.67 511.238 435.14 511.628 435.68 511.628H479.25C479.66 511.628 479.97 511.247 479.87 510.847L437.37 332.297C437.24 331.767 436.77 331.388 436.22 331.388H377.75C377.35 331.388 376.99 331.667 376.9 332.057L334.97 511.138C334.91 511.388 335.1 511.628 335.36 511.628H382.38C382.6 511.628 382.78 511.457 382.8 511.247Z" stroke="#808080" stroke-width="2"/>
<path d="M198.929 71.2152C198.92 66.9175 195.43 63.4275 191.125 63.4388L66.5455 63.6562C62.2404 63.6675 58.7604 67.1575 58.7691 71.4598L58.7719 73.0198C58.7804 77.3175 62.2704 80.8075 66.5755 80.7962L191.155 80.5788C195.46 80.5675 198.94 77.0775 198.932 72.7752L198.929 71.2152Z" stroke="#808080" stroke-width="2"/>
<path d="M209.14 95.6375C209.14 90.7775 205.2 86.8375 200.34 86.8375H67.1804C62.3204 86.8375 58.3804 90.7775 58.3804 95.6375V96.8775C58.3804 101.738 62.3204 105.678 67.1804 105.678H200.34C205.2 105.678 209.14 101.738 209.14 96.8775V95.6375Z" stroke="#808080" stroke-width="2"/>
<path d="M310.81 221.677C311.55 235.327 303.71 241.697 290.78 241.207C282.55 240.897 275.58 236.547 273.41 228.527C272.54 225.327 272.08 222.987 272.02 221.507C271.47 207.717 271.42 189.697 271.87 167.427C271.94 164.137 272.9 160.287 273.97 157.447C276.42 150.927 281.17 147.387 288.21 146.817C298 146.027 306.78 147.897 310.01 158.417C311.15 162.107 310.84 166.947 310.79 169.677C310.78 170.107 311.12 170.457 311.55 170.457H341.22C341.55 170.457 341.82 170.207 341.84 169.877C343.51 147.557 333.08 128.037 310.79 121.707C301.83 119.167 292.53 118.127 282.88 118.597C259.72 119.717 241.66 131.607 236.24 155.027C234.55 162.327 233.73 170.277 233.76 178.877C233.82 194.397 233.83 206.327 233.79 214.677C233.77 218.917 234.41 222.577 234.68 226.467C234.91 229.727 235.35 232.587 236 235.037C241.11 254.407 253.64 265.897 273.57 269.527C281.53 270.977 289.55 270.847 297.64 269.157C304.67 267.687 310.15 265.287 314.1 261.937C314.36 261.717 314.76 261.837 314.85 262.167L316.5 267.917C316.63 268.367 317.04 268.677 317.51 268.677H342.5C342.73 268.677 342.92 268.487 342.92 268.247V191.077C342.92 190.797 342.7 190.567 342.42 190.567H288.08C287.59 190.567 287.19 190.967 287.19 191.457V220.237C287.19 220.777 287.62 221.207 288.16 221.207H310.31C310.58 221.207 310.8 221.417 310.81 221.677Z" stroke="#808080" stroke-width="2"/>
<path d="M58.2401 268.658C90.5 268.708 109.29 268.688 114.62 268.608C134.71 268.308 152.8 260.248 160.41 240.408C162.14 235.898 163.19 231.718 163.58 227.878C164.21 221.538 164.54 216.047 164.57 211.397C164.67 196.137 164.82 181.518 164.04 167.388C162.61 141.308 149.93 124.077 123.33 120.777C118.09 120.127 113.68 119.728 110.11 119.598C109.52 119.568 92.2201 119.568 58.1901 119.578C57.9801 119.578 57.8101 119.747 57.8101 119.957V268.217C57.8101 268.457 58.0001 268.658 58.2401 268.658Z" stroke="#808080" stroke-width="2"/>
<path d="M217.93 121.117C217.93 120.807 217.68 120.557 217.37 120.557H182.35C182.04 120.557 181.79 120.807 181.79 121.117V268.117C181.79 268.427 182.04 268.677 182.35 268.677H217.37C217.68 268.677 217.93 268.427 217.93 268.117V121.117Z" stroke="#808080" stroke-width="2"/>
<path d="M398.92 123.087C398.92 122.797 398.68 122.557 398.39 122.557H363.33C363.04 122.557 362.8 122.797 362.8 123.087V268.128C362.8 268.418 363.04 268.658 363.33 268.658H398.39C398.68 268.658 398.92 268.418 398.92 268.128V123.087Z" stroke="#808080" stroke-width="2"/>
<path d="M474.3 268.328C474.64 268.328 474.92 268.047 474.92 267.707V153.298C474.92 152.958 475.2 152.677 475.54 152.677H505.47C505.81 152.677 506.09 152.397 506.09 152.057V123.188C506.09 122.847 505.81 122.568 505.47 122.568H410.42C410.08 122.568 409.8 122.847 409.8 123.188V152.057C409.8 152.397 410.08 152.677 410.42 152.677H439.19C439.53 152.677 439.81 152.958 439.81 153.298V267.707C439.81 268.047 440.09 268.328 440.43 268.328H474.3Z" stroke="#808080" stroke-width="2"/>
<path d="M530.26 122.578C529.91 122.578 529.6 122.818 529.51 123.158L492.11 267.728C491.98 268.208 492.35 268.688 492.85 268.688H526.31C526.67 268.688 526.98 268.438 527.06 268.098L533.34 241.258C533.42 240.918 533.73 240.668 534.09 240.668H568.8C569.16 240.668 569.47 240.908 569.55 241.258L575.94 268.098C576.02 268.448 576.33 268.688 576.69 268.688H609.36C609.86 268.688 610.22 268.218 610.1 267.728L574.26 123.158C574.18 122.818 573.87 122.578 573.52 122.578H530.26Z" stroke="#808080" stroke-width="2"/>
<path d="M701.93 238.107C701.93 237.817 701.69 237.577 701.4 237.577H659.45C659.16 237.577 658.92 237.337 658.92 237.047V133.677C658.92 133.387 658.68 133.147 658.39 133.147H623.32C623.03 133.147 622.79 133.387 622.79 133.677V267.267C622.79 267.557 623.03 267.797 623.32 267.797H701.4C701.69 267.797 701.93 267.557 701.93 267.267V238.107Z" stroke="#808080" stroke-width="2"/>
<path d="M93.0803 152.138L92.7803 239.658C92.7803 240.008 93.0603 240.298 93.4203 240.298L108.68 240.348C119.47 240.388 128.25 230.888 128.29 219.138L128.45 172.897C128.49 161.147 119.78 151.588 108.98 151.548L93.7303 151.497C93.3703 151.497 93.0803 151.778 93.0803 152.138Z" stroke="#808080" stroke-width="2"/>
<path d="M551.7 212.628C555.18 212.638 558.89 212.627 562.83 212.587C563.12 212.577 563.33 212.307 563.26 212.027C558.91 193.807 555.2 177.107 552.15 161.927C552.1 161.657 551.98 161.518 551.81 161.518C551.64 161.518 551.53 161.657 551.47 161.927C548.35 177.087 544.57 193.778 540.13 211.978C540.07 212.258 540.27 212.528 540.56 212.538C544.5 212.588 548.21 212.618 551.7 212.628Z" stroke="#808080" stroke-width="2"/>
<path d="M242.87 367.997V413.258C242.87 413.488 243.05 413.667 243.28 413.667H256.14C266.68 413.667 275.23 405.018 275.23 394.338V386.917C275.23 376.237 266.68 367.588 256.14 367.588H243.28C243.05 367.588 242.87 367.767 242.87 367.997Z" stroke="#808080" stroke-width="2"/>
<path d="M394.03 446.607H422.28C422.52 446.607 422.74 446.467 422.84 446.247C423.12 445.647 422.32 444.447 422.14 443.417C417.5 417.127 413.06 391.688 408.83 367.078C408.76 366.698 408.53 366.528 408.14 366.578C407.95 366.598 407.79 366.647 407.65 366.737C407.55 366.797 407.48 366.947 407.44 367.177C402.43 396.037 397.09 424.558 393.53 446.028C393.48 446.328 393.72 446.607 394.03 446.607Z" stroke="#808080" stroke-width="2"/>
<path d="M1.89001 285.718C1.85001 284.518 1.64 283.627 1.27 283.057C1.04 282.697 0.910006 282.277 0.920006 281.857C0.970006 279.567 0.690006 277.357 0.100006 275.237C0.0300061 274.997 0 274.747 0 274.497C0.03 193.527 0.0800015 118.067 0.150002 48.1275C0.150002 46.7975 0.350002 44.5875 0.760002 41.4975C1.1 38.9375 1.53001 36.7675 2.06001 34.9775C6.65001 19.5275 16.57 8.82749 31.83 2.88749C32.07 2.79749 32.32 2.7375 32.57 2.7275C33.54 2.6575 34.31 2.4175 34.9 2.0075C35.19 1.8075 35.53 1.69749 35.89 1.68749C37.08 1.65749 38.05 1.43749 38.78 1.01749C38.89 0.957495 39.01 0.917494 39.14 0.907494L48.22 0.0075C48.23 -0.0025 48.24 -0.0025 48.25 0.0075C52.14 0.6275 56.08 0.357501 60.35 0.977501C106.77 7.7075 140.95 12.7375 162.9 16.0675C220.07 24.7575 276.56 33.3275 332.35 41.7775C389.76 50.4675 453.35 59.9675 523.1 70.2675C591.55 80.3675 644.21 88.1875 681.1 93.7275C682.59 93.9575 686.32 94.4575 692.29 95.2475C697.15 95.8975 700.86 96.5275 703.41 97.1375C711.5 99.0775 719.82 102.717 726.15 108.287C733.81 115.017 739.06 123.187 741.89 132.807C742.5 134.877 742.85 136.927 742.96 138.957C743.1 141.697 743.82 144.118 743.82 147.228C743.89 221.848 743.92 340.568 743.93 503.378C743.93 507.928 743.85 511.428 743.28 514.838C742.41 520.028 741.92 522.958 741.79 523.628C741.68 524.218 741.05 526.158 739.89 529.468C739.22 531.388 738.4 533.258 737.41 535.088C731.4 546.248 721.97 553.257 709.11 556.117C708.68 556.217 707.01 556.547 704.11 557.117C702.53 557.427 700.84 557.587 699.05 557.617C683.45 557.807 666.11 556.557 652.1 556.607C645.23 556.637 639.15 556.478 633.86 556.138C619.88 555.258 602.61 556.018 590.41 555.138C581.33 554.478 571.67 554.868 563.27 554.398C554.4 553.908 548.46 553.668 545.47 553.658C539.62 553.648 533.67 553.567 527.62 553.417C523.55 553.317 517.88 552.677 513.28 552.677C503.54 552.687 495.79 552.537 490.02 552.227C480.57 551.717 473.47 551.508 468.71 551.588C459.17 551.758 450.22 550.678 440.26 550.718C433.43 550.748 426 550.578 417.97 550.198C402.19 549.448 388.24 549.848 372.64 548.948C363.75 548.428 349.35 548.748 337.46 548.028C325.51 547.308 312.44 547.748 301.8 547.148C290.71 546.518 281.06 546.918 271.35 546.388C257.22 545.608 242.87 545.657 232.39 545.537C227.49 545.477 222.53 544.648 217.2 544.698C207.91 544.798 199.36 544.687 191.53 544.367C178.06 543.817 169.11 543.578 164.69 543.628C153.29 543.768 140.81 542.907 128.92 542.737C104.68 542.387 88.71 541.957 81.01 541.438C79.63 541.347 77.51 540.957 74.64 540.287C72.15 539.707 70.08 539.107 68.41 538.487C52.32 532.497 39.68 522.508 30.48 508.518C27.23 503.588 24.29 497.557 21.65 490.427C20.66 487.747 20.16 484.398 19.27 481.958C19.16 481.648 19.09 481.338 19.05 481.018C18.79 478.778 18.58 477.417 18.41 476.927C17.95 475.587 17.78 474.208 17.89 472.778C17.93 472.278 17.73 469.467 17.28 464.347C17.11 462.427 17.03 459.618 17.04 455.908C17.13 404.218 17.11 356.998 16.98 314.268C16.98 313.628 16.74 312.998 16.31 312.518C11.08 306.558 6.99001 299.648 4.06001 291.778C2.90001 288.648 2.29 287.048 2.24 286.958C2.02 286.578 1.90001 286.148 1.89001 285.718ZM698.75 293.737C707.71 292.057 715.91 284.187 718.12 275.617C718.59 273.787 718.83 268.627 718.82 260.117C718.79 195.167 718.77 155.527 718.77 141.217C718.77 133.347 711.62 126.167 704.98 123.307C703.51 122.677 698.12 121.677 688.83 120.307C547.95 99.6675 411.03 79.3675 278.08 59.4075C243.08 54.1475 207.89 48.9375 172.5 43.7775C114.57 35.3275 79.37 30.1575 66.91 28.2775C60.06 27.2475 55.14 26.6375 52.16 26.4675C41.87 25.8875 32.2 31.4075 28.21 40.8675C27.35 42.9075 26.92 46.2575 26.92 50.9075C26.93 142.567 26.93 214.837 26.91 267.717C26.91 270.987 27.09 273.577 27.46 275.477C29.07 283.817 35.66 290.418 43.36 293.328C45.83 294.258 49.28 294.688 53.7 294.638C81.27 294.308 113.66 295.297 143.27 295.307C225.73 295.357 312.1 295.308 402.37 295.138C405.11 295.138 409.32 294.698 411.37 294.698C585.81 294.458 677.51 294.288 686.48 294.188C693.49 294.108 697.58 293.957 698.75 293.737ZM136.9 445.258C136.88 445.718 136.89 448.688 136.92 454.158C136.94 456.588 136.57 459.717 135.8 463.547C133.52 474.927 126.24 481.567 113.85 480.497C108.13 480.007 102.31 476.207 99.7 470.557C98.19 467.287 97.36 464.878 97.19 463.328C96.55 457.608 95.85 453.988 95.85 449.028C95.85 429.498 95.85 411.227 95.86 394.237C95.86 390.227 96.6 386.608 97.26 381.968C98.38 374.148 103.26 367.117 111.55 365.847C118.91 364.717 126.62 365.978 130.41 372.828C132.43 376.478 133.54 379.927 133.75 383.177C133.92 385.727 134.15 390.748 134.45 398.218C134.46 398.428 134.63 398.597 134.85 398.597H179.45C179.64 398.597 179.8 398.448 179.81 398.258C180.06 393.088 179.04 387.828 178.5 382.648C177.55 373.518 174.99 365.117 170.84 357.427C162.35 341.707 146.63 331.897 129.13 329.117C93.09 323.397 57.44 339.068 51.24 378.188C50.34 383.878 49.89 387.688 49.89 389.628C49.9 432.428 49.91 453.967 49.92 454.237C49.93 456.087 50.05 457.597 50.26 458.747C50.96 462.607 51 466.017 52.03 469.977C58.25 493.837 76.07 508.977 99.87 513.807C103.79 514.597 107.18 514.478 110.43 515.088C112.94 515.558 115.58 515.727 118.37 515.607C125.38 515.317 132.25 514.417 138.99 512.927C157.81 508.757 170.25 497.458 176.3 479.028C179.86 468.198 181.36 456.928 180.8 445.198C180.78 444.868 180.52 444.617 180.19 444.617H137.57C137.21 444.617 136.92 444.898 136.9 445.258ZM604.13 367.438C605.44 367.167 606.52 367.028 607.37 367.018C616.45 366.928 626.43 366.897 637.3 366.927C637.63 366.927 637.89 367.198 637.89 367.528V511.328C637.89 511.498 638.02 511.628 638.19 511.628H683.01C683.11 511.628 683.2 511.538 683.2 511.438V367.667C683.2 367.127 683.64 366.688 684.18 366.688H716.86C717.04 366.688 717.19 366.537 717.19 366.357V331.177C717.19 331.017 717.06 330.888 716.9 330.888H604.47C604.14 330.888 603.88 331.157 603.88 331.487V367.237C603.88 367.367 604 367.467 604.13 367.438ZM591.5 331.537C591.5 331.337 591.34 331.177 591.14 331.177H493.25C493.05 331.177 492.89 331.337 492.89 331.537V511.268C492.89 511.468 493.05 511.628 493.25 511.628H536.14C536.34 511.628 536.5 511.468 536.5 511.268V444.958C536.5 444.758 536.66 444.597 536.86 444.597H581.7C581.9 444.597 582.06 444.437 582.06 444.237V405.977C582.06 405.777 581.9 405.617 581.7 405.617H538.21C538.01 405.617 537.85 405.458 537.85 405.258V367.987C537.85 367.787 538.01 367.628 538.21 367.628H591.14C591.34 367.628 591.5 367.468 591.5 367.268V331.537ZM199.15 331.658V511.078C199.15 511.388 199.4 511.638 199.71 511.638H243.19C243.56 511.638 243.86 511.338 243.86 510.968V448.927C243.86 448.737 244.01 448.588 244.2 448.588H258.97C259.29 448.588 259.57 448.818 259.63 449.128L272.51 510.537C272.64 511.177 273.21 511.628 273.86 511.628H324.23C324.7 511.628 325.03 511.177 324.9 510.727L301.74 430.107C301.59 429.567 301.88 429.008 302.41 428.818C304.16 428.168 306.14 426.838 308.33 424.818C313.34 420.188 316.7 414.538 318.4 407.888C321.56 395.468 321.79 382.888 319.08 370.158C315.89 355.138 307.59 344.528 294.18 338.338C281.97 332.698 269.85 331.597 256.87 331.438C249.87 331.347 230.74 331.318 199.48 331.338C199.3 331.338 199.15 331.478 199.15 331.658ZM382.8 511.247C382.84 510.757 382.9 510.218 382.98 509.648C384.32 500.138 385.55 492.488 386.68 486.688C387.04 484.847 386.76 482.868 387.8 481.028C387.95 480.768 388.22 480.607 388.52 480.607H428.73C429.13 480.607 429.48 480.897 429.55 481.297L434.58 510.708C434.67 511.238 435.14 511.628 435.68 511.628H479.25C479.66 511.628 479.97 511.247 479.87 510.847L437.37 332.297C437.24 331.767 436.77 331.388 436.22 331.388H377.75C377.35 331.388 376.99 331.667 376.9 332.057L334.97 511.138C334.91 511.388 335.1 511.628 335.36 511.628H382.38C382.6 511.628 382.78 511.457 382.8 511.247Z" fill="black"/>
<path d="M718.12 275.617C715.91 284.187 707.71 292.057 698.75 293.737C697.58 293.957 693.49 294.108 686.48 294.188C677.51 294.288 585.81 294.458 411.37 294.698C409.32 294.698 405.11 295.138 402.37 295.138C312.1 295.308 225.73 295.357 143.27 295.307C113.66 295.297 81.2702 294.308 53.7002 294.638C49.2802 294.688 45.8302 294.258 43.3602 293.328C35.6602 290.418 29.0702 283.817 27.4602 275.477C27.0902 273.577 26.9102 270.987 26.9102 267.717C26.9302 214.837 26.9302 142.568 26.9202 50.9075C26.9202 46.2575 27.3502 42.9075 28.2102 40.8675C32.2002 31.4075 41.8702 25.8875 52.1602 26.4675C55.1402 26.6375 60.0602 27.2475 66.9102 28.2775C79.3702 30.1575 114.57 35.3275 172.5 43.7775C207.89 48.9375 243.08 54.1475 278.08 59.4075C411.03 79.3675 547.95 99.6675 688.83 120.307C698.12 121.677 703.51 122.677 704.98 123.307C711.62 126.167 718.77 133.347 718.77 141.217C718.77 155.527 718.79 195.167 718.82 260.117C718.83 268.627 718.59 273.787 718.12 275.617ZM198.929 71.2152C198.92 66.9175 195.43 63.4275 191.125 63.4388L66.5453 63.6562C62.2402 63.6675 58.7602 67.1575 58.7689 71.4598L58.7717 73.0198C58.7802 77.3175 62.2702 80.8075 66.5753 80.7962L191.155 80.5788C195.46 80.5675 198.94 77.0775 198.931 72.7752L198.929 71.2152ZM209.14 95.6375C209.14 90.7775 205.2 86.8375 200.34 86.8375H67.1802C62.3202 86.8375 58.3802 90.7775 58.3802 95.6375V96.8775C58.3802 101.738 62.3202 105.677 67.1802 105.677H200.34C205.2 105.677 209.14 101.738 209.14 96.8775V95.6375ZM310.81 221.677C311.55 235.327 303.71 241.697 290.78 241.207C282.55 240.897 275.58 236.547 273.41 228.527C272.54 225.327 272.08 222.988 272.02 221.508C271.47 207.718 271.42 189.697 271.87 167.427C271.94 164.137 272.9 160.288 273.97 157.448C276.42 150.928 281.17 147.388 288.21 146.818C298 146.028 306.78 147.898 310.01 158.418C311.15 162.108 310.84 166.947 310.79 169.677C310.78 170.107 311.12 170.457 311.55 170.457H341.22C341.55 170.457 341.82 170.208 341.84 169.878C343.51 147.558 333.08 128.037 310.79 121.707C301.83 119.167 292.53 118.128 282.88 118.598C259.72 119.718 241.66 131.607 236.24 155.027C234.55 162.327 233.73 170.278 233.76 178.878C233.82 194.398 233.83 206.327 233.79 214.677C233.77 218.917 234.41 222.577 234.68 226.467C234.91 229.727 235.35 232.588 236 235.038C241.11 254.408 253.64 265.897 273.57 269.527C281.53 270.977 289.55 270.848 297.64 269.158C304.67 267.688 310.15 265.287 314.1 261.938C314.36 261.718 314.76 261.838 314.85 262.168L316.5 267.918C316.63 268.368 317.04 268.677 317.51 268.677H342.5C342.73 268.677 342.92 268.487 342.92 268.247V191.078C342.92 190.798 342.7 190.568 342.42 190.568H288.08C287.59 190.568 287.19 190.967 287.19 191.457V220.237C287.19 220.777 287.62 221.207 288.16 221.207H310.31C310.58 221.207 310.8 221.417 310.81 221.677ZM58.2402 268.658C90.5002 268.708 109.29 268.688 114.62 268.608C134.71 268.308 152.8 260.248 160.41 240.408C162.14 235.898 163.19 231.718 163.58 227.878C164.21 221.538 164.54 216.047 164.57 211.397C164.67 196.137 164.82 181.518 164.04 167.388C162.61 141.308 149.93 124.077 123.33 120.777C118.09 120.127 113.68 119.728 110.11 119.598C109.52 119.568 92.2202 119.568 58.1902 119.578C57.9802 119.578 57.8102 119.747 57.8102 119.957V268.217C57.8102 268.457 58.0002 268.658 58.2402 268.658ZM217.93 121.117C217.93 120.807 217.68 120.557 217.37 120.557H182.35C182.04 120.557 181.79 120.807 181.79 121.117V268.117C181.79 268.427 182.04 268.677 182.35 268.677H217.37C217.68 268.677 217.93 268.427 217.93 268.117V121.117ZM398.92 123.087C398.92 122.797 398.68 122.557 398.39 122.557H363.33C363.04 122.557 362.8 122.797 362.8 123.087V268.128C362.8 268.418 363.04 268.658 363.33 268.658H398.39C398.68 268.658 398.92 268.418 398.92 268.128V123.087ZM474.3 268.328C474.64 268.328 474.92 268.047 474.92 267.707V153.298C474.92 152.958 475.2 152.677 475.54 152.677H505.47C505.81 152.677 506.09 152.397 506.09 152.057V123.188C506.09 122.847 505.81 122.568 505.47 122.568H410.42C410.08 122.568 409.8 122.847 409.8 123.188V152.057C409.8 152.397 410.08 152.677 410.42 152.677H439.19C439.53 152.677 439.81 152.958 439.81 153.298V267.707C439.81 268.047 440.09 268.328 440.43 268.328H474.3ZM530.26 122.578C529.91 122.578 529.6 122.818 529.51 123.158L492.11 267.728C491.98 268.208 492.35 268.688 492.85 268.688H526.31C526.67 268.688 526.98 268.438 527.06 268.098L533.34 241.258C533.42 240.918 533.73 240.668 534.09 240.668H568.8C569.16 240.668 569.47 240.908 569.55 241.258L575.94 268.098C576.02 268.448 576.33 268.688 576.69 268.688H609.36C609.86 268.688 610.22 268.218 610.1 267.728L574.26 123.158C574.18 122.818 573.87 122.578 573.52 122.578H530.26ZM701.93 238.108C701.93 237.818 701.69 237.578 701.4 237.578H659.45C659.16 237.578 658.92 237.338 658.92 237.048V133.677C658.92 133.387 658.68 133.147 658.39 133.147H623.32C623.03 133.147 622.79 133.387 622.79 133.677V267.268C622.79 267.558 623.03 267.798 623.32 267.798H701.4C701.69 267.798 701.93 267.558 701.93 267.268V238.108Z" fill="white"/>
<path d="M137.57 444.617H180.19C180.52 444.617 180.78 444.868 180.8 445.198C181.36 456.928 179.86 468.198 176.3 479.028C170.25 497.458 157.81 508.757 138.99 512.927C132.25 514.417 125.38 515.317 118.37 515.607C115.58 515.727 112.94 515.558 110.43 515.088C107.18 514.478 103.79 514.597 99.8701 513.807C76.0701 508.977 58.2501 493.837 52.0301 469.977C51.0001 466.017 50.9601 462.607 50.2601 458.747C50.0501 457.597 49.9301 456.087 49.9201 454.237C49.9101 453.967 49.9001 432.427 49.8901 389.627C49.8901 387.687 50.3401 383.877 51.2401 378.187C57.4401 339.067 93.0901 323.397 129.13 329.117C146.63 331.897 162.35 341.707 170.84 357.427C174.99 365.117 177.55 373.518 178.5 382.648C179.04 387.828 180.06 393.088 179.81 398.258C179.8 398.448 179.64 398.597 179.45 398.597H134.85C134.63 398.597 134.46 398.428 134.45 398.218C134.15 390.748 133.92 385.727 133.75 383.177C133.54 379.927 132.43 376.478 130.41 372.828C126.62 365.978 118.91 364.717 111.55 365.847C103.26 367.117 98.3801 374.148 97.2601 381.968C96.6001 386.608 95.8601 390.227 95.8601 394.237C95.8501 411.227 95.8501 429.498 95.8501 449.028C95.8501 453.988 96.5501 457.608 97.1901 463.328C97.3601 464.878 98.1901 467.287 99.7001 470.557C102.31 476.207 108.13 480.007 113.85 480.497C126.24 481.567 133.52 474.927 135.8 463.547C136.57 459.717 136.94 456.588 136.92 454.158C136.89 448.688 136.88 445.718 136.9 445.258C136.92 444.898 137.21 444.617 137.57 444.617Z" fill="white"/>
<path d="M604.13 367.438C604 367.467 603.88 367.367 603.88 367.237V331.487C603.88 331.157 604.14 330.888 604.47 330.888H716.9C717.06 330.888 717.19 331.017 717.19 331.177V366.357C717.19 366.537 717.04 366.688 716.86 366.688H684.18C683.64 366.688 683.2 367.127 683.2 367.667V511.438C683.2 511.538 683.11 511.628 683.01 511.628H638.19C638.02 511.628 637.89 511.498 637.89 511.328V367.528C637.89 367.198 637.63 366.927 637.3 366.927C626.43 366.897 616.45 366.928 607.37 367.018C606.52 367.028 605.44 367.167 604.13 367.438Z" fill="white"/>
<path d="M591.5 331.537V367.268C591.5 367.468 591.34 367.628 591.14 367.628H538.21C538.01 367.628 537.85 367.787 537.85 367.987V405.258C537.85 405.458 538.01 405.617 538.21 405.617H581.7C581.9 405.617 582.06 405.777 582.06 405.977V444.237C582.06 444.437 581.9 444.597 581.7 444.597H536.86C536.66 444.597 536.5 444.758 536.5 444.958V511.268C536.5 511.468 536.34 511.628 536.14 511.628H493.25C493.05 511.628 492.89 511.468 492.89 511.268V331.537C492.89 331.337 493.05 331.177 493.25 331.177H591.14C591.34 331.177 591.5 331.337 591.5 331.537Z" fill="white"/>
<path d="M199.15 331.658C199.15 331.478 199.3 331.338 199.48 331.338C230.74 331.318 249.87 331.348 256.87 331.438C269.85 331.598 281.97 332.698 294.18 338.338C307.59 344.528 315.89 355.138 319.08 370.158C321.79 382.888 321.56 395.468 318.4 407.888C316.7 414.538 313.34 420.188 308.33 424.818C306.14 426.838 304.16 428.168 302.41 428.818C301.88 429.008 301.59 429.567 301.74 430.107L324.9 510.727C325.03 511.177 324.7 511.628 324.23 511.628H273.86C273.21 511.628 272.64 511.177 272.51 510.537L259.63 449.128C259.57 448.818 259.29 448.588 258.97 448.588H244.2C244.01 448.588 243.86 448.737 243.86 448.927V510.968C243.86 511.338 243.56 511.638 243.19 511.638H199.71C199.4 511.638 199.15 511.388 199.15 511.078V331.658ZM242.87 367.998V413.258C242.87 413.488 243.05 413.667 243.28 413.667H256.14C266.68 413.667 275.23 405.018 275.23 394.338V386.917C275.23 376.237 266.68 367.588 256.14 367.588H243.28C243.05 367.588 242.87 367.768 242.87 367.998Z" fill="white"/>
<path d="M382.8 511.247C382.78 511.457 382.6 511.628 382.38 511.628H335.36C335.1 511.628 334.91 511.388 334.97 511.138L376.9 332.057C376.99 331.667 377.35 331.388 377.75 331.388H436.22C436.77 331.388 437.24 331.767 437.37 332.297L479.87 510.847C479.97 511.247 479.66 511.628 479.25 511.628H435.68C435.14 511.628 434.67 511.238 434.58 510.708L429.55 481.297C429.48 480.897 429.13 480.607 428.73 480.607H388.52C388.22 480.607 387.95 480.768 387.8 481.028C386.76 482.868 387.04 484.847 386.68 486.688C385.55 492.488 384.32 500.138 382.98 509.648C382.9 510.218 382.84 510.757 382.8 511.247ZM394.03 446.607H422.28C422.52 446.607 422.74 446.467 422.84 446.247C423.12 445.647 422.32 444.447 422.14 443.417C417.5 417.127 413.06 391.688 408.83 367.078C408.76 366.698 408.53 366.528 408.14 366.578C407.95 366.598 407.79 366.647 407.65 366.737C407.55 366.797 407.48 366.947 407.44 367.177C402.43 396.037 397.09 424.558 393.53 446.028C393.48 446.328 393.72 446.607 394.03 446.607Z" fill="white"/>
<path d="M191.125 63.4388L66.5454 63.6563C62.2431 63.6638 58.7615 67.1576 58.769 71.4598L58.7717 73.0198C58.7792 77.3221 62.273 80.8037 66.5753 80.7962L191.155 80.5788C195.457 80.5713 198.939 77.0775 198.931 72.7752L198.929 71.2152C198.921 66.9129 195.427 63.4313 191.125 63.4388Z" fill="black"/>
<path d="M200.34 86.8375H67.1799C62.3198 86.8375 58.3799 90.7774 58.3799 95.6375V96.8775C58.3799 101.738 62.3198 105.678 67.1799 105.678H200.34C205.2 105.678 209.14 101.738 209.14 96.8775V95.6375C209.14 90.7774 205.2 86.8375 200.34 86.8375Z" fill="black"/>
<path d="M310.31 221.207H288.16C287.62 221.207 287.19 220.777 287.19 220.237V191.457C287.19 190.967 287.59 190.567 288.08 190.567H342.42C342.7 190.567 342.92 190.797 342.92 191.077V268.247C342.92 268.487 342.73 268.677 342.5 268.677H317.51C317.04 268.677 316.63 268.367 316.5 267.917L314.85 262.167C314.76 261.837 314.36 261.717 314.1 261.937C310.15 265.287 304.67 267.687 297.64 269.157C289.55 270.847 281.53 270.977 273.57 269.527C253.64 265.897 241.11 254.407 236 235.037C235.35 232.587 234.91 229.727 234.68 226.467C234.41 222.577 233.77 218.917 233.79 214.677C233.83 206.327 233.82 194.397 233.76 178.877C233.73 170.277 234.55 162.327 236.24 155.027C241.66 131.607 259.72 119.717 282.88 118.597C292.53 118.127 301.83 119.167 310.79 121.707C333.08 128.037 343.51 147.557 341.84 169.877C341.82 170.207 341.55 170.457 341.22 170.457H311.55C311.12 170.457 310.78 170.107 310.79 169.677C310.84 166.947 311.15 162.107 310.01 158.417C306.78 147.897 298 146.027 288.21 146.817C281.17 147.387 276.42 150.927 273.97 157.447C272.9 160.287 271.94 164.137 271.87 167.427C271.42 189.697 271.47 207.717 272.02 221.507C272.08 222.987 272.54 225.327 273.41 228.527C275.58 236.547 282.55 240.897 290.78 241.207C303.71 241.697 311.55 235.327 310.81 221.677C310.8 221.417 310.58 221.207 310.31 221.207Z" fill="black"/>
<path d="M58.2401 268.658C58.0001 268.658 57.8101 268.457 57.8101 268.217V119.957C57.8101 119.747 57.9801 119.578 58.1901 119.578C92.2201 119.568 109.52 119.568 110.11 119.598C113.68 119.728 118.09 120.127 123.33 120.777C149.93 124.077 162.61 141.308 164.04 167.388C164.82 181.518 164.67 196.137 164.57 211.397C164.54 216.047 164.21 221.538 163.58 227.878C163.19 231.718 162.14 235.898 160.41 240.408C152.8 260.248 134.71 268.308 114.62 268.608C109.29 268.688 90.5 268.708 58.2401 268.658ZM93.0801 152.138L92.7801 239.658C92.7801 240.008 93.0601 240.298 93.4201 240.298L108.68 240.348C119.47 240.388 128.25 230.888 128.29 219.138L128.45 172.897C128.49 161.147 119.78 151.588 108.98 151.548L93.7301 151.497C93.3701 151.497 93.0801 151.778 93.0801 152.138Z" fill="black"/>
<path d="M217.37 120.557H182.35C182.041 120.557 181.79 120.808 181.79 121.117V268.117C181.79 268.427 182.041 268.677 182.35 268.677H217.37C217.679 268.677 217.93 268.427 217.93 268.117V121.117C217.93 120.808 217.679 120.557 217.37 120.557Z" fill="black"/>
<path d="M398.39 122.557H363.33C363.037 122.557 362.8 122.795 362.8 123.087V268.128C362.8 268.42 363.037 268.658 363.33 268.658H398.39C398.683 268.658 398.92 268.42 398.92 268.128V123.087C398.92 122.795 398.683 122.557 398.39 122.557Z" fill="black"/>
<path d="M474.3 268.328H440.43C440.09 268.328 439.81 268.047 439.81 267.707V153.298C439.81 152.958 439.53 152.677 439.19 152.677H410.42C410.08 152.677 409.8 152.397 409.8 152.057V123.188C409.8 122.847 410.08 122.568 410.42 122.568H505.47C505.81 122.568 506.09 122.847 506.09 123.188V152.057C506.09 152.397 505.81 152.677 505.47 152.677H475.54C475.2 152.677 474.92 152.958 474.92 153.298V267.707C474.92 268.047 474.64 268.328 474.3 268.328Z" fill="black"/>
<path d="M530.26 122.578H573.52C573.87 122.578 574.18 122.818 574.26 123.158L610.1 267.728C610.22 268.218 609.86 268.688 609.36 268.688H576.69C576.33 268.688 576.02 268.448 575.94 268.098L569.55 241.258C569.47 240.908 569.16 240.668 568.8 240.668H534.09C533.73 240.668 533.42 240.918 533.34 241.258L527.06 268.098C526.98 268.438 526.67 268.688 526.31 268.688H492.85C492.35 268.688 491.98 268.208 492.11 267.728L529.51 123.158C529.6 122.818 529.91 122.578 530.26 122.578ZM551.7 212.628C555.18 212.638 558.89 212.627 562.83 212.587C563.12 212.577 563.33 212.307 563.26 212.027C558.91 193.807 555.2 177.107 552.15 161.927C552.1 161.657 551.98 161.518 551.81 161.518C551.64 161.518 551.53 161.657 551.47 161.927C548.35 177.087 544.57 193.778 540.13 211.978C540.07 212.258 540.27 212.528 540.56 212.538C544.5 212.588 548.21 212.618 551.7 212.628Z" fill="black"/>
<path d="M701.93 238.108V267.268C701.93 267.558 701.69 267.798 701.4 267.798H623.32C623.03 267.798 622.79 267.558 622.79 267.268V133.678C622.79 133.388 623.03 133.148 623.32 133.148H658.39C658.68 133.148 658.92 133.388 658.92 133.678V237.048C658.92 237.338 659.16 237.578 659.45 237.578H701.4C701.69 237.578 701.93 237.818 701.93 238.108Z" fill="black"/>
<path d="M394.03 446.607C393.72 446.607 393.48 446.328 393.53 446.028C397.09 424.558 402.43 396.037 407.44 367.177C407.48 366.947 407.55 366.797 407.65 366.737C407.79 366.647 407.95 366.598 408.14 366.578C408.53 366.528 408.76 366.698 408.83 367.078C413.06 391.688 417.5 417.127 422.14 443.417C422.32 444.447 423.12 445.647 422.84 446.247C422.74 446.467 422.52 446.607 422.28 446.607H394.03Z" fill="black"/>
<path d="M242.87 367.997C242.87 367.767 243.05 367.588 243.28 367.588H256.14C266.68 367.588 275.23 376.237 275.23 386.917V394.338C275.23 405.018 266.68 413.667 256.14 413.667H243.28C243.05 413.667 242.87 413.488 242.87 413.258V367.997Z" fill="black"/>
<path d="M93.0803 152.138C93.0803 151.778 93.3703 151.497 93.7303 151.497L108.98 151.548C119.78 151.588 128.49 161.147 128.45 172.897L128.29 219.138C128.25 230.888 119.47 240.388 108.68 240.348L93.4203 240.298C93.0603 240.298 92.7803 240.008 92.7803 239.658L93.0803 152.138Z" fill="white"/>
<path d="M551.81 161.518C551.98 161.518 552.1 161.657 552.15 161.927C555.2 177.107 558.91 193.807 563.26 212.027C563.33 212.307 563.12 212.577 562.83 212.587C558.89 212.627 555.18 212.638 551.7 212.628C548.21 212.618 544.5 212.588 540.56 212.538C540.27 212.528 540.07 212.258 540.13 211.978C544.57 193.778 548.35 177.087 551.47 161.927C551.53 161.657 551.64 161.518 551.81 161.518Z" fill="white"/>
</svg>
